# xmcd
#
# Track frame offsets:
#	150
#	15941
#	36164
#	66269
#	95469
#	121650
#	140991
#	178743
#
# Disc length: 2747 seconds
#
# Revision: 1
# Processed by: cddbd v1.5.2PL0 Copyright (c) Steve Scherf et al.
# Submitted via: audiograbber 1.83.01
#
DISCID=680ab908
DTITLE=Various Artist - Blue Rose Christmas Party 2007 CD3
DYEAR=2008
DGENRE=
TTITLE0=The Blue Rose Rockestra Part 2 - Sweet little Rock And Roller
TTITLE1=The Blue Rose Rockestra Part 2 - Summertime Blues
TTITLE2=The Blue Rose Rockestra Part 2 - (I'm Not Your) Steppin' Stone
TTITLE3=The Blue Rose Rockestra Part 2 - It's All Over Now
TTITLE4=The Blue Rose Rockestra Part 2 - Willin'
TTITLE5=The Blue Rose Rockestra Part 2 - Taxman
TTITLE6=The Blue Rose Rockestra Part 2 - Born To Be Wild
TTITLE7=The Blue Rose Rockestra Part 2 - Solitary Man
EXTD=
EXTT0=
EXTT1=
EXTT2=
EXTT3=
EXTT4=
EXTT5=
EXTT6=
EXTT7=
PLAYORDER=
